<?xml version="1.0" encoding="UTF-8"?>
<svg id="Layer_1" xmlns="http://www.w3.org/2000/svg" version="1.1" width="170" height="33.5" viewBox="0 0 170 33.5">
  <!-- Generator: Adobe Illustrator 29.0.0, SVG Export Plug-In . SVG Version: 2.1.0 Build 186)  -->
  <defs>
    <style>
      .st0 {
        fill: #fff;
      }

      .st1 {
        fill: none;
        stroke: #fff;
        stroke-miterlimit: 10;
        stroke-width: .4px;
      }
    </style>
  </defs>
  <g>
    <g>
      <g>
        <g>
          <circle class="st0" cx="56.4" cy="4.2" r="1.3"/>
          <circle class="st0" cx="66.8" cy="9.8" r="2.2"/>
        </g>
        <g>
          <circle class="st0" cx="56.4" cy="29.2" r="1.3"/>
          <circle class="st0" cx="66.8" cy="23.7" r="2.2"/>
        </g>
      </g>
      <path class="st0" d="M63.6,6c-.2.9-1.2,1.4-2.1,1.2-.9-.2-1.4-1.2-1.2-2.1s1.2-1.4,2.1-1.2c.9.2,1.4,1.2,1.2,2.1Z"/>
      <path class="st0" d="M63.6,28.4c-.2.9-1.2,1.4-2.1,1.2-.9-.2-1.4-1.2-1.2-2.1s1.2-1.4,2.1-1.2c.9.2,1.4,1.2,1.2,2.1Z"/>
      <circle class="st0" cx="68.9" cy="16.8" r="2.5"/>
    </g>
    <path class="st0" d="M22.5,11.1h2.9v11.2h-2.9s0-11.2,0-11.2ZM24.3,6.1c-.9-.2-1.8.3-2.1,1.2-.2.9.3,1.8,1.2,2.1.9.2,1.8-.3,2.1-1.2.2-.9-.3-1.8-1.2-2.1ZM34.4,22.5c-.8,0-1.4-.1-2-.4-.6-.3-1.1-.7-1.5-1.2v6.9h-2.8V11.1h2.8v1.5c.4-.6.9-1,1.5-1.3.6-.3,1.3-.5,2-.5s1.4.1,2,.4c.6.3,1.2.7,1.7,1.2s.9,1.1,1.2,1.8.4,1.5.4,2.4-.2,1.7-.5,2.4c-.3.7-.7,1.3-1.2,1.8s-1.1.9-1.7,1.2-1.3.4-2,.4h0ZM33.8,19.8c.4,0,.8,0,1.2-.2s.7-.4,1-.7c.3-.3.5-.6.7-1s.2-.8.2-1.2,0-.8-.2-1.2-.4-.7-.7-1-.6-.5-1-.7-.8-.2-1.2-.2-.9,0-1.2.2c-.4.2-.7.4-1,.7s-.5.6-.7,1-.2.8-.2,1.2,0,.9.2,1.2c.2.4.4.7.7,1,.3.3.6.5,1,.7s.8.2,1.2.2ZM41.8,11.1h2.8v1.7c.3-.7.7-1.1,1.2-1.5.5-.3,1.2-.5,1.9-.5s.7,0,1,.1c.3,0,.6.2.8.3l-1,2.8c-.2-.1-.4-.2-.6-.3-.3,0-.6-.1-.9-.1-.7,0-1.3.2-1.8.6-.4.4-.7,1.1-.7,2v5.9h-2.8v-11.2.2h0ZM55.8,22.5c-.8,0-1.6-.2-2.3-.5s-1.3-.7-1.9-1.2c-.5-.5-.9-1.1-1.2-1.8-.3-.7-.4-1.5-.4-2.3s0-1.6.4-2.3c.3-.7.7-1.3,1.2-1.8s1.2-.9,1.9-1.2,1.5-.5,2.3-.5,1.6.2,2.3.5,1.3.7,1.9,1.2c.5.5.9,1.1,1.2,1.8s.5,1.5.5,2.3-.2,1.5-.5,2.3c-.3.7-.7,1.3-1.2,1.8s-1.1.9-1.9,1.2c-.7.3-1.5.5-2.3.5ZM55.9,19.8c.4,0,.8,0,1.2-.2s.7-.4,1-.7c.3-.3.5-.6.7-1s.2-.8.2-1.2,0-.8-.2-1.2-.4-.7-.7-1-.6-.5-1-.7-.8-.2-1.2-.2-.8,0-1.2.2-.7.4-1,.7-.5.6-.7,1-.2.8-.2,1.2,0,.9.2,1.2c.2.4.4.7.7,1s.6.5,1,.7.8.2,1.2.2ZM2.4,11.1h2.9l2.2,7.1,2.6-7.1h2.5l2.6,7.1,2.3-7.1h2.9l-3.8,11.1h-2.7l-2.7-7.3-2.7,7.3h-2.7l-3.6-11.1s.2,0,.2,0Z"/>
  </g>
  <line class="st1" x1="82" y1="4.7" x2="82" y2="28.7"/>
  <g>
    <path class="st0" d="M97.2,11.3c2.1,0,3.4.9,4.2,2l-1.4,1.3c-.7-1-1.6-1.4-2.7-1.4-2.2,0-3.7,1.7-3.7,4.1s1.4,4.1,3.7,4.1,2.1-.5,2.7-1.4l1.4,1.3c-.8,1.1-2.1,2-4.2,2-3.4,0-5.8-2.6-5.8-6,0-5.9,5.8-6,5.8-6Z"/>
    <path class="st0" d="M110.7,22.9v-1.2c-.9,1-2.2,1.5-3.7,1.5s-3.9-1.3-3.9-3.8,2-3.7,3.9-3.7,2.8.5,3.7,1.5v-1.9c0-1.4-1.2-2.3-2.8-2.3s-2.4.5-3.4,1.5l-.9-1.5c1.3-1.2,2.8-1.9,4.6-1.9s4.6,1.1,4.6,4v7.7h-2.1,0ZM110.7,18.5c-.6-.8-1.7-1.3-2.9-1.3s-2.6.9-2.6,2.3,1.1,2.3,2.6,2.3,2.3-.4,2.9-1.3v-1.9h0Z"/>
    <path class="st0" d="M116.2,22.9v-11.3h2.1v1.7c.9-1.1,2.2-2,3.7-2v2.1h-.7c-1.1,0-2.5.8-3,1.6v7.9h-2.1Z"/>
    <path class="st0" d="M129.1,11.3c3.4,0,5.5,2.7,5.5,6.1v.5h-9c.2,1.9,1.6,3.5,3.8,3.5s2.5-.5,3.4-1.3l1,1.4c-1.1,1.1-2.7,1.7-4.6,1.7-3.4,0-5.9-2.4-5.9-6s2.4-5.9,5.7-5.9c0,0,.1,0,.1,0ZM125.7,16.4h6.9c0-1.5-1.1-3.4-3.4-3.4s-3.4,1.8-3.5,3.4Z"/>
    <path class="st0" d="M142.3,11.3c3.4,0,5.5,2.7,5.5,6.1v.5h-9c.2,1.9,1.6,3.5,3.8,3.5s2.5-.5,3.4-1.3l1,1.4c-1.1,1.1-2.7,1.7-4.6,1.7-3.4,0-5.9-2.4-5.9-6s2.4-5.9,5.7-5.9c0,0,.1,0,.1,0ZM138.8,16.4h6.9c0-1.5-1.1-3.4-3.4-3.4s-3.4,1.8-3.5,3.4Z"/>
    <path class="st0" d="M150.4,22.9v-11.3h2.1v1.7c.9-1.1,2.2-2,3.7-2v2.1h-.7c-1.1,0-2.5.8-3,1.6v7.9h-2.1Z"/>
    <path class="st0" d="M158.4,19.9c.8.8,2.3,1.6,3.8,1.6s2.4-.7,2.4-1.6-1.3-1.5-2.7-1.8c-1.9-.4-4.2-1-4.2-3.4s1.8-3.4,4.3-3.4,3.4.7,4.3,1.6l-.9,1.5c-.7-.8-1.9-1.4-3.4-1.4s-2.3.6-2.3,1.5,1.2,1.3,2.6,1.6c2,.4,4.3,1,4.3,3.6s-2.3,3.5-4.6,3.5-3.6-.6-4.7-1.8l1-1.5h0Z"/>
  </g>
</svg>